<?xml version="1.0" encoding="UTF-8"?>
<!DOCTYPE svg PUBLIC "-//W3C//DTD SVG 1.1//EN" "http://www.w3.org/Graphics/SVG/1.1/DTD/svg11.dtd">
<!-- Creator: CorelDRAW -->
<svg xmlns="http://www.w3.org/2000/svg" xml:space="preserve" width="215.9mm" height="279.4mm" version="1.1" style="shape-rendering:geometricPrecision; text-rendering:geometricPrecision; image-rendering:optimizeQuality; fill-rule:evenodd; clip-rule:evenodd"
viewBox="0 0 21590 27940"
 xmlns:xlink="http://www.w3.org/1999/xlink"
 xmlns:xodm="http://www.corel.com/coreldraw/odm/2003">
 <defs>
  <style type="text/css">
   <![CDATA[
    .str0 {stroke:#FEFEFE;stroke-width:20;stroke-miterlimit:22.9256}
    .str1 {stroke:#373435;stroke-width:20;stroke-miterlimit:22.9256}
    .fil8 {fill:none}
    .fil1 {fill:#FEFEFE}
    .fil5 {fill:#0D2454}
    .fil7 {fill:#0E1E56}
    .fil6 {fill:#14234C}
    .fil4 {fill:#192A56}
    .fil2 {fill:#1B2552}
    .fil3 {fill:#1C2653}
    .fil0 {fill:#39549F}
   ]]>
  </style>
 </defs>
 <g id="Capa_x0020_1">
  <metadata id="CorelCorpID_0Corel-Layer"/>
  <path class="fil0 str0" d="M1763.89 23001.11l9619.32 0 -4.51 -6962.63c-147.94,-20.52 -1497.78,-7.95 -1765.51,-7.95l-441.08 0.04c-19.18,0.04 -54.35,1.61 -71.72,0.24 -74.5,-5.85 -34.71,7.1 -68.75,-21.79 -33.95,-382.65 -4.95,-1583.3 -4.95,-2109.58 0,-163.76 -19.76,-582.68 10.81,-716.7l2337.22 -7.11 20.84 -2711.78 16.89 -61.44 37.04 -273.82 15.75 -43.31c44.69,-291.73 241.12,-722.19 370.2,-929.29l17.63 -22.7c56.25,-116.72 279.54,-405.7 351.91,-472.05l23.18 -14.15c73.29,-89.81 105.18,-107.82 188.94,-198.22 47.71,-51.49 140.26,-121.44 212.91,-175.07 142.98,-105.55 304.78,-215.44 489.25,-302.03l25.15 -14.22c671.85,-286.46 953.69,-323.79 1760.45,-323.79 430.13,0.01 1760.14,-20.85 2081.87,4.56l6.17 2557.15c-578.97,34.89 -1300.19,-23.99 -1827.46,5.84 -255.81,14.48 -353.85,109.77 -473.82,151.39l-16.45 17.55c-96.25,63.71 -200.34,170.04 -266.45,265.23l-17.07 15.91c-52.51,140.13 -122.17,205.99 -143.02,399.27l-13.03 51.42 -4.25 2068.93 2696.33 3.45c27.38,18.95 17.5,-3.97 19.99,38.6 2.04,34.93 -5.96,34.74 -14.9,53.55l0.78 51.42 -19.12 54.19 -19.03 222.37 -14.19 45.95 -17.53 208.7 -22.29 64.31 -35.88 363.65 -11.93 53.14 3.69 53.68 -27.2 72.73 -82.73 733.05 -22.34 64.31 -35.8 364.42 -11.83 52.93c-6.84,92.09 -8.72,276.3 -55.44,339.91 -32.93,41.15 -472.58,18.91 -563.46,18.91 -194.03,0 -388.05,0 -582.08,0 -192.19,0 -1064.29,-25.04 -1178.44,16.03l-6.39 6954.8 5594.55 0 0 -18062.22 -18062.22 0 0 18062.22z"/>
  <path class="fil1 str0" d="M13144.41 7957.55l-25.15 14.22c-184.47,86.59 -346.27,196.48 -489.25,302.03 -72.65,53.63 -165.2,123.58 -212.91,175.07 -83.76,90.4 -115.65,108.41 -188.94,198.22l-23.18 14.15c-72.37,66.35 -295.66,355.33 -351.91,472.05l-17.63 22.7c-129.08,207.1 -325.51,637.56 -370.2,929.29l-15.75 43.31 -37.04 273.82 -16.89 61.44 -20.84 2711.78 -2337.22 7.11c-30.57,134.02 -10.81,552.94 -10.81,716.7 0,526.28 -29,1726.93 4.95,2109.58 207.57,25.34 1763.82,9.99 2222.25,6.52 15.16,-0.12 58.16,-1.28 70.81,0.5 87.08,12.26 20.85,-0.38 54,22.44l4.51 6962.63 2848.35 0 6.39 -6954.8c41.09,-51.79 159.89,-30.81 278.86,-30.57 435.97,0.9 1821.53,19.8 2045.12,-4.37 46.72,-63.61 48.6,-247.82 55.44,-339.91l11.83 -52.93 35.8 -364.42 22.34 -64.31 82.73 -733.05 27.2 -72.73 -3.69 -53.68 11.93 -53.14 35.88 -363.65 22.29 -64.31 17.53 -208.7 14.19 -45.95 19.03 -222.37 19.12 -54.19 -0.78 -51.42 -5.09 -92.15 -2696.33 -3.45 4.25 -2068.93 13.03 -51.42c20.85,-193.28 90.51,-259.14 143.02,-399.27l17.07 -15.91c66.11,-95.19 170.2,-201.52 266.45,-265.23l16.45 -17.55c119.97,-41.62 218.01,-136.91 473.82,-151.39 527.27,-29.83 1248.49,29.05 1827.46,-5.84l-6.17 -2557.15c-321.73,-25.41 -1651.74,-4.55 -2081.87,-4.56 -806.76,0 -1088.6,37.33 -1760.45,323.79z"/>
  <path class="fil2 str0" d="M16561.93 16011.37c-223.59,24.17 -1609.15,5.27 -2045.12,4.37 -118.97,-0.24 -237.77,-21.22 -278.86,30.57 114.15,-41.07 986.25,-16.03 1178.44,-16.03 194.03,0 388.05,0 582.08,0 90.88,0 530.53,22.24 563.46,-18.91z"/>
  <path class="fil3 str0" d="M11378.7 16038.48c-33.15,-22.82 33.08,-10.18 -54,-22.44 -12.65,-1.78 -55.65,-0.62 -70.81,-0.5 -458.43,3.47 -2014.68,18.82 -2222.25,-6.52 34.04,28.89 -5.75,15.94 68.75,21.79 17.37,1.37 52.54,-0.2 71.72,-0.24l441.08 -0.04c267.73,0 1617.57,-12.57 1765.51,7.95z"/>
  <path class="fil4 str0" d="M16932.77 13266.61c8.94,-18.81 16.94,-18.62 14.9,-53.55 -2.49,-42.57 7.39,-19.65 -19.99,-38.6l5.09 92.15z"/>
  <polygon class="fil5 str0" points="13144.41,7957.55 13119.26,7971.77 "/>
  <polygon class="fil6 str0" points="12228.16,8647.09 12204.98,8661.24 "/>
  <polygon class="fil5 str0" points="11853.07,9133.29 11835.44,9155.99 "/>
  <polygon class="fil4 str0" points="11449.49,10128.59 11465.24,10085.28 "/>
  <polygon class="fil7 str0" points="14691.62,10352.7 14675.17,10370.25 "/>
  <polygon class="fil5 str0" points="11395.56,10463.85 11412.45,10402.41 "/>
  <polygon class="fil7 str0" points="14408.72,10635.48 14391.65,10651.39 "/>
  <polygon class="fil6 str0" points="14235.6,11102.08 14248.63,11050.66 "/>
  <polygon class="fil6 str0" points="16914.43,13372.22 16933.55,13318.03 "/>
  <polygon class="fil4 str0" points="16881.21,13640.54 16895.4,13594.59 "/>
  <polygon class="fil6 str0" points="16841.39,13913.55 16863.68,13849.24 "/>
  <polygon class="fil2 str0" points="16793.58,14330.34 16805.51,14277.2 "/>
  <polygon class="fil4 str0" points="16770.07,14456.75 16797.27,14384.02 "/>
  <polygon class="fil6 str0" points="16665,15254.11 16687.34,15189.8 "/>
  <polygon class="fil4 str0" points="16617.37,15671.46 16629.2,15618.53 "/>
  <rect class="fil8 str1" x="1763.89" y="4938.89" width="18062.22" height="18062.22"/>
 </g>
</svg>
