<?xml version="1.0" encoding="UTF-8"?>
<!DOCTYPE svg PUBLIC "-//W3C//DTD SVG 1.1//EN" "http://www.w3.org/Graphics/SVG/1.1/DTD/svg11.dtd">
<!-- Creator: CorelDRAW -->
<svg xmlns="http://www.w3.org/2000/svg" xml:space="preserve" width="215.9mm" height="279.4mm" version="1.1" style="shape-rendering:geometricPrecision; text-rendering:geometricPrecision; image-rendering:optimizeQuality; fill-rule:evenodd; clip-rule:evenodd"
viewBox="0 0 21590 27940"
 xmlns:xlink="http://www.w3.org/1999/xlink"
 xmlns:xodm="http://www.corel.com/coreldraw/odm/2003">
 <defs>
  <style type="text/css">
   <![CDATA[
    .fil0 {fill:#34AADF;fill-rule:nonzero}
    .fil1 {fill:white;fill-rule:nonzero}
   ]]>
  </style>
 </defs>
 <g id="Capa_x0020_1">
  <metadata id="CorelCorpID_0Corel-Layer"/>
  <polygon class="fil0" points="5789.2,8964.2 15789.2,8964.2 15789.2,18964.2 5789.2,18964.2 "/>
  <path class="fil1" d="M8571.2 13787.05c0,0 2034.5,-856.86 2740.07,-1158.6 270.5,-120.7 1187.75,-506.9 1187.75,-506.9 0,0 423.35,-168.95 388.05,241.4 -11.76,168.99 -105.83,760.34 -199.91,1400 -141.13,905.19 -294.02,1894.8 -294.02,1894.8 0,0 -23.53,277.6 -223.44,325.85 -199.92,48.26 -529.19,-168.95 -588.02,-217.24 -47.05,-36.21 -881.99,-579.31 -1187.74,-844.85 -82.31,-72.4 -176.39,-217.25 11.76,-386.2 423.35,-398.3 929.06,-893.1 1234.81,-1206.9 141.13,-144.85 282.22,-482.75 -305.75,-72.4 -834.94,591.39 -1658.16,1146.55 -1658.16,1146.55 0,0 -188.19,120.69 -540.95,12.05 -352.81,-108.6 -764.4,-253.45 -764.4,-253.45 0,0 -282.22,-181.01 199.91,-374.15l0.04 0.04z"/>
 </g>
</svg>
