<?xml version="1.0" encoding="UTF-8"?>
<!DOCTYPE svg PUBLIC "-//W3C//DTD SVG 1.1//EN" "http://www.w3.org/Graphics/SVG/1.1/DTD/svg11.dtd">
<svg xmlns="http://www.w3.org/2000/svg" version="1.1" width="1600px" height="1600px" style="shape-rendering:geometricPrecision; text-rendering:geometricPrecision; image-rendering:optimizeQuality; fill-rule:evenodd; clip-rule:evenodd" xmlns:xlink="http://www.w3.org/1999/xlink">
<g><path style="opacity:1" fill="#25d366" d="M 755.5,-0.5 C 784.833,-0.5 814.167,-0.5 843.5,-0.5C 1065.4,16.0497 1250.57,105.716 1399,268.5C 1519.86,407.759 1586.69,570.092 1599.5,755.5C 1599.5,784.833 1599.5,814.167 1599.5,843.5C 1581.14,1081.41 1480.81,1275.58 1298.5,1426C 1165.06,1529.9 1013.39,1587.73 843.5,1599.5C 814.167,1599.5 784.833,1599.5 755.5,1599.5C 529.551,1582.44 342.051,1490.1 193,1322.5C 76.767,1184.57 12.267,1024.9 -0.5,843.5C -0.5,814.167 -0.5,784.833 -0.5,755.5C 16.0268,533.642 105.693,348.475 268.5,200C 407.791,79.13 570.124,12.2967 755.5,-0.5 Z"/></g>
<g><path style="opacity:1" fill="#fefefe" d="M 864.5,297.5 C 869.29,298.725 874.29,299.392 879.5,299.5C 1034.79,321.39 1154.63,398.057 1239,529.5C 1289.24,613.128 1313.91,703.794 1313,801.5C 1306.26,947.798 1248.43,1069.3 1139.5,1166C 1077.73,1218.38 1007.06,1253.55 927.5,1271.5C 924.572,1271.57 921.905,1272.23 919.5,1273.5C 801.909,1296.01 690.409,1279.35 585,1223.5C 493.993,1252.17 402.993,1280.84 312,1309.5C 311.83,1307.15 312.163,1304.82 313,1302.5C 342.145,1217.24 370.979,1131.91 399.5,1046.5C 365.703,989.538 343.703,928.205 333.5,862.5C 333.283,858.295 332.617,854.295 331.5,850.5C 326.214,810.164 326.214,769.831 331.5,729.5C 332.957,724.402 333.624,719.069 333.5,713.5C 358.117,572.703 428.783,461.536 545.5,380C 598.676,344.25 656.676,319.75 719.5,306.5C 722.781,306.58 725.781,305.913 728.5,304.5C 773.494,295.905 818.828,293.572 864.5,297.5 Z"/></g>
<g><path style="opacity:1" fill="#8ee4a6" d="M 864.5,297.5 C 869.75,297.302 874.75,297.969 879.5,299.5C 874.29,299.392 869.29,298.725 864.5,297.5 Z"/></g>
<g><path style="opacity:1" fill="#acebbe" d="M 728.5,304.5 C 725.781,305.913 722.781,306.58 719.5,306.5C 722.219,305.087 725.219,304.42 728.5,304.5 Z"/></g>
<g><path style="opacity:1" fill="#25d366" d="M 1223.5,689.5 C 1223.41,692.152 1224.08,694.485 1225.5,696.5C 1227.42,705.119 1229.09,713.785 1230.5,722.5C 1230.2,726.79 1230.86,730.79 1232.5,734.5C 1239.14,790.213 1235.47,845.213 1221.5,899.5C 1219.59,903.216 1218.26,907.216 1217.5,911.5C 1172.8,1046.03 1083.47,1136.86 949.5,1184C 835.799,1218.51 726.466,1208.18 621.5,1153C 615.263,1148.81 608.929,1144.81 602.5,1141C 600.232,1139.45 597.732,1138.61 595,1138.5C 541.907,1154.86 488.907,1171.52 436,1188.5C 451.942,1136.92 468.442,1085.42 485.5,1034C 472.269,1013.03 459.769,991.533 448,969.5C 437.471,946.076 428.638,922.076 421.5,897.5C 421.59,894.848 420.924,892.515 419.5,890.5C 394.35,783.059 408.183,681.059 461,584.5C 526.969,474.247 623.136,406.413 749.5,381C 892.989,359.916 1016.16,399.749 1119,500.5C 1170.48,554.121 1205.32,617.121 1223.5,689.5 Z"/></g>
<g><path style="opacity:1" fill="#fefefe" d="M 933.5,861.5 C 937.534,861.505 941.534,861.838 945.5,862.5C 951.308,863.825 956.974,865.658 962.5,868C 994.885,882.109 1026.38,897.942 1057,915.5C 1063.65,959.034 1048.15,991.867 1010.5,1014C 982.228,1030.32 951.894,1036.32 919.5,1032C 878.594,1021.37 838.927,1007.37 800.5,990C 756.83,967.338 717.997,938.171 684,902.5C 655.011,870.827 628.678,837.161 605,801.5C 594.687,784.541 585.687,766.874 578,748.5C 575.52,740.231 573.354,731.898 571.5,723.5C 571.58,720.219 570.913,717.219 569.5,714.5C 568.691,702.518 568.358,690.518 568.5,678.5C 569.709,674.382 570.376,670.049 570.5,665.5C 578.287,631.55 596.287,604.383 624.5,584C 628.465,582.874 632.465,581.874 636.5,581C 647.167,580.333 657.833,580.333 668.5,581C 673.4,581.522 678.066,582.855 682.5,585C 685.388,588.222 687.888,591.722 690,595.5C 705.931,630.293 720.098,665.793 732.5,702C 732.363,704.898 731.863,707.731 731,710.5C 721.039,727.416 709.372,743.083 696,757.5C 693.702,761.218 693.035,765.218 694,769.5C 726.142,831.64 773.975,877.474 837.5,907C 848.163,912.499 859.163,917.166 870.5,921C 874.261,921.738 877.928,921.405 881.5,920C 895.926,904.299 909.759,888.132 923,871.5C 926.369,867.963 929.869,864.629 933.5,861.5 Z"/></g>
<g><path style="opacity:1" fill="#8ae4a4" d="M 570.5,665.5 C 570.376,670.049 569.709,674.382 568.5,678.5C 568.28,673.9 568.946,669.567 570.5,665.5 Z"/></g>
<g><path style="opacity:1" fill="#91e4a8" d="M 1223.5,689.5 C 1224.92,691.515 1225.59,693.848 1225.5,696.5C 1224.08,694.485 1223.41,692.152 1223.5,689.5 Z"/></g>
<g><path style="opacity:1" fill="#bef0cc" d="M 333.5,713.5 C 333.624,719.069 332.957,724.402 331.5,729.5C 331.527,723.949 332.194,718.616 333.5,713.5 Z"/></g>
<g><path style="opacity:1" fill="#a9e9ba" d="M 569.5,714.5 C 570.913,717.219 571.58,720.219 571.5,723.5C 570.087,720.781 569.42,717.781 569.5,714.5 Z"/></g>
<g><path style="opacity:1" fill="#93e5a9" d="M 1230.5,722.5 C 1231.79,726.267 1232.46,730.267 1232.5,734.5C 1230.86,730.79 1230.2,726.79 1230.5,722.5 Z"/></g>
<g><path style="opacity:1" fill="#9ee7b2" d="M 331.5,850.5 C 332.617,854.295 333.283,858.295 333.5,862.5C 331.864,858.79 331.198,854.79 331.5,850.5 Z"/></g>
<g><path style="opacity:1" fill="#9ae5af" d="M 933.5,861.5 C 934.793,860.842 936.293,860.508 938,860.5C 940.821,860.408 943.321,861.074 945.5,862.5C 941.534,861.838 937.534,861.505 933.5,861.5 Z"/></g>
<g><path style="opacity:1" fill="#b1ecc3" d="M 419.5,890.5 C 420.924,892.515 421.59,894.848 421.5,897.5C 420.076,895.485 419.41,893.152 419.5,890.5 Z"/></g>
<g><path style="opacity:1" fill="#c4f0d0" d="M 1221.5,899.5 C 1221.14,903.915 1219.81,907.915 1217.5,911.5C 1218.26,907.216 1219.59,903.216 1221.5,899.5 Z"/></g>
<g><path style="opacity:1" fill="#9fe8b4" d="M 927.5,1271.5 C 925.162,1273.04 922.495,1273.71 919.5,1273.5C 921.905,1272.23 924.572,1271.57 927.5,1271.5 Z"/></g>
</svg>
